<svg xmlns="http://www.w3.org/2000/svg" version="1.1" xmlns:xlink="http://www.w3.org/1999/xlink" xmlns:svgjs="http://svgjs.dev/svgjs" width="1500" height="208" viewBox="0 0 1500 208"><g transform="matrix(1,0,0,1,-0.9090909090909918,0.8442554464776322)"><svg viewBox="0 0 396 55" data-background-color="#ffffff" preserveAspectRatio="xMidYMid meet" height="208" width="1500" xmlns="http://www.w3.org/2000/svg" xmlns:xlink="http://www.w3.org/1999/xlink"><g id="tight-bounds" transform="matrix(1,0,0,1,0.2400000000000091,-0.22324062286668322)"><svg viewBox="0 0 395.52 55.446481245733374" height="55.446481245733374" width="395.52"><g><svg viewBox="0 0 444.34647581417835 62.291283722286" height="55.446481245733374" width="395.52"><g transform="matrix(1,0,0,1,0,8.608997967407113)"><svg viewBox="0 0 395.52 45.07328778747178" height="45.07328778747178" width="395.52"><g id="textblocktransform"><svg viewBox="0 0 395.52 45.07328778747178" height="45.07328778747178" width="395.52" id="textblock"><g><svg viewBox="0 0 395.52 45.07328778747178" height="45.07328778747178" width="395.52"><g transform="matrix(1,0,0,1,0,0)"><svg width="395.52" viewBox="2.15 -34.806578371482004 316.08000000000004 35.606578371482" height="45.07328778747178" data-palette-color="#a60024"><g class="wordmark-text-0" data-fill-palette-color="primary" id="text-0"><path d="M16.6-13.05L12.35-13.05 7.85-23.75Q6.85-26.15 6.03-27.68 5.2-29.2 4.2-30L4.2-30Q2.95-31 2.55-31.45 2.15-31.9 2.15-32.4L2.15-32.4Q2.15-32.85 3-33.38 3.85-33.9 4.95-34.3 6.05-34.7 6.8-34.7L6.8-34.7Q8.85-34.7 10.23-33.02 11.6-31.35 12.6-28.5L12.6-28.5 16.3-18.1 14.8-17 19.8-24.7Q21.2-26.8 21.53-28.35 21.85-29.9 21.95-30.95L21.95-30.95Q22.05-31.85 23.05-32.52 24.05-33.2 25.4-33.7 26.75-34.2 27.98-34.45 29.2-34.7 29.8-34.7L29.8-34.7Q30.7-34.7 30.7-33.9L30.7-33.9Q30.7-33.4 30.3-32.65 29.9-31.9 29.2-30.95L29.2-30.95 16.6-13.05ZM16.15 0.4L12.1 0.4Q11.2 0.4 10.85-0.4 10.5-1.2 10.5-2.55L10.5-2.55Q10.5-3.55 10.65-4.8L10.65-4.8 12-16.95 17.95-16.05 16.15 0.4ZM45.5-13.05L41.25-13.05 36.75-23.75Q35.75-26.15 34.92-27.68 34.1-29.2 33.1-30L33.1-30Q31.85-31 31.45-31.45 31.05-31.9 31.05-32.4L31.05-32.4Q31.05-32.85 31.9-33.38 32.75-33.9 33.85-34.3 34.95-34.7 35.7-34.7L35.7-34.7Q37.75-34.7 39.12-33.02 40.5-31.35 41.5-28.5L41.5-28.5 45.2-18.1 43.7-17 48.7-24.7Q50.1-26.8 50.42-28.35 50.75-29.9 50.85-30.95L50.85-30.95Q50.95-31.85 51.95-32.52 52.95-33.2 54.3-33.7 55.65-34.2 56.87-34.45 58.1-34.7 58.7-34.7L58.7-34.7Q59.6-34.7 59.6-33.9L59.6-33.9Q59.6-33.4 59.2-32.65 58.8-31.9 58.1-30.95L58.1-30.95 45.5-13.05ZM45.05 0.4L41 0.4Q40.1 0.4 39.75-0.4 39.4-1.2 39.4-2.55L39.4-2.55Q39.4-3.55 39.55-4.8L39.55-4.8 40.9-16.95 46.85-16.05 45.05 0.4ZM73.9 0.8L73.9 0.8Q69.7 0.8 66.57-0.88 63.45-2.55 61.7-5.9 59.95-9.25 59.95-14.15L59.95-14.15Q59.95-18.65 61.37-22.43 62.8-26.2 65.39-28.98 68-31.75 71.59-33.27 75.2-34.8 79.59-34.8L79.59-34.8Q83.7-34.8 85.75-33.93 87.8-33.05 87.8-30.8L87.8-30.8Q87.8-29.6 87.37-28.75 86.95-27.9 86.45-27.9L86.45-27.9Q86-27.9 85.42-28.2 84.84-28.5 84.15-28.85L84.15-28.85Q82.95-29.45 81.52-30.13 80.09-30.8 77.75-30.8L77.75-30.8Q74.7-30.8 72.17-28.8 69.65-26.8 68.12-23.28 66.59-19.75 66.59-15.05L66.59-15.05Q66.59-11.1 67.77-8.45 68.95-5.8 70.9-4.5 72.84-3.2 75.15-3.2L75.15-3.2Q77.05-3.2 78.55-3.93 80.05-4.65 81.17-5.6 82.3-6.55 83.2-7.28 84.09-8 84.8-8L84.8-8Q85.34-8 85.72-7.75 86.09-7.5 86.09-6.7L86.09-6.7Q86.09-4.75 84.45-3.05 82.8-1.35 80.05-0.28 77.3 0.8 73.9 0.8Z" fill="#a60024" data-fill-palette-color="primary"></path><path d="M103.85 0.6L103.85 0.6Q103.05 0.6 102.8-0.15 102.55-0.9 102.55-1.95L102.55-1.95Q102.55-3.7 102.75-5.68 102.95-7.65 103.15-9.55L103.15-9.55 105.9-34.75 110.05-34.8Q112.1-34.85 112.87-34.52 113.65-34.2 113.9-33.2L113.9-33.2 121.3-6.15 118.7-6.25 130.25-31.4Q130.9-32.8 132.65-33.77 134.4-34.75 136.9-34.75L136.9-34.75Q137.9-34.75 138.42-34.27 138.95-33.8 138.8-32.45L138.8-32.45 135.4 0.4 131.4 0.4Q130.75 0.4 130.4-0.4 130.05-1.2 130.05-2.65L130.05-2.65Q130.05-4.7 130.17-7.1 130.3-9.5 130.55-11.7L130.55-11.7 132.4-27.5 132.7-27.3 126.15-13.2Q124.15-8.9 122.9-6.38 121.65-3.85 120.87-2.6 120.1-1.35 119.55-0.98 119-0.6 118.4-0.6L118.4-0.6Q117.75-0.6 117.32-0.88 116.9-1.15 116.65-2.05L116.65-2.05 109.2-27.55 109.65-27.6 108.25-14.65Q107.8-10.7 107.85-8.35 107.9-6 108.17-4.73 108.45-3.45 108.7-2.75 108.95-2.05 108.95-1.45L108.95-1.45Q108.95-0.9 108.35-0.53 107.75-0.15 106.85 0.1 105.95 0.35 105.12 0.48 104.3 0.6 103.85 0.6ZM149.15 0.8L149.15 0.8Q145.3 0.8 143.2-1.63 141.1-4.05 141.1-8.3L141.1-8.3Q141.1-11.85 142.1-14.8 143.1-17.75 144.9-19.95 146.7-22.15 149.12-23.35 151.55-24.55 154.4-24.55L154.4-24.55Q157.8-24.55 159.6-23.1 161.4-21.65 161.4-18.95L161.4-18.95Q161.4-16.2 159.57-14.15 157.75-12.1 154.32-10.65 150.9-9.2 146.15-8.2L146.15-8.2 145.5-11.2Q148.25-11.55 150.55-12.4 152.85-13.25 154.25-14.68 155.65-16.1 155.65-18.05L155.65-18.05Q155.65-19.4 155.12-20.1 154.6-20.8 153.25-20.8L153.25-20.8Q151.2-20.8 149.77-19.3 148.35-17.8 147.62-15.4 146.9-13 146.9-10.3L146.9-10.3Q146.9-6.65 148.02-5.43 149.15-4.2 151.35-4.2L151.35-4.2Q153.65-4.2 155.37-4.93 157.1-5.65 158.35-6.45L158.35-6.45Q158.75-6.7 159.05-6.85 159.35-7 159.55-7L159.55-7Q159.8-7 159.95-6.8 160.1-6.6 160.1-6.35L160.1-6.35Q160.1-5.45 159.3-4.25 158.5-3.05 157.02-1.9 155.55-0.75 153.55 0.03 151.55 0.8 149.15 0.8ZM168.44 0.8L168.44 0.8Q165.74 0.8 164.57-1.4 163.39-3.6 163.39-7.85L163.39-7.85Q163.39-11.5 164.42-14.55 165.44-17.6 167.29-19.83 169.14-22.05 171.59-23.28 174.04-24.5 176.89-24.5L176.89-24.5Q178.64-24.5 180.37-23.93 182.09-23.35 183.34-22.75L183.34-22.75 181.74-17.85Q180.39-18.75 178.92-19.4 177.44-20.05 176.22-20.4 174.99-20.75 174.34-20.75L174.34-20.75Q172.89-20.75 171.69-19.38 170.49-18 169.77-15.58 169.04-13.15 169.04-10L169.04-10Q169.04-7.1 169.47-5.6 169.89-4.1 170.84-4.1L170.84-4.1Q171.64-4.1 173.32-5.58 174.99-7.05 177.22-10.5 179.44-13.95 181.89-19.85L181.89-19.85 183.34-15.4Q180.69-9.4 178.09-5.85 175.49-2.3 173.07-0.75 170.64 0.8 168.44 0.8ZM185.14 0.5L181.64 0.5Q181.09 0.5 180.69-0.13 180.29-0.75 180.09-1.65 179.89-2.55 179.89-3.3L179.89-3.3Q179.89-4.55 180.32-6.15 180.74-7.75 181.39-10.2L181.39-10.2 182.39-13.95 180.94-15.55 181.49-20.8 182.19-21.65 182.59-34.8 186.49-34.8Q187.24-34.8 187.72-34.15 188.19-33.5 188.42-32.63 188.64-31.75 188.64-30.95L188.64-30.95Q188.64-30.45 188.59-29.83 188.54-29.2 188.39-28.13 188.24-27.05 187.94-25.15L187.94-25.15 186.29-13.65Q185.94-11.25 185.69-8.75 185.44-6.25 185.32-3.9 185.19-1.55 185.14 0.5L185.14 0.5ZM193.54 0.6L193.54 0.6Q192.74 0.6 192.49-0.15 192.24-0.9 192.24-1.95L192.24-1.95Q192.24-3.7 192.44-5.68 192.64-7.65 192.84-9.55L192.84-9.55 195.59-34.75 199.74-34.8Q201.79-34.85 202.57-34.52 203.34-34.2 203.59-33.2L203.59-33.2 210.99-6.15 208.39-6.25 219.94-31.4Q220.59-32.8 222.34-33.77 224.09-34.75 226.59-34.75L226.59-34.75Q227.59-34.75 228.11-34.27 228.64-33.8 228.49-32.45L228.49-32.45 225.09 0.4 221.09 0.4Q220.44 0.4 220.09-0.4 219.74-1.2 219.74-2.65L219.74-2.65Q219.74-4.7 219.86-7.1 219.99-9.5 220.24-11.7L220.24-11.7 222.09-27.5 222.39-27.3 215.84-13.2Q213.84-8.9 212.59-6.38 211.34-3.85 210.57-2.6 209.79-1.35 209.24-0.98 208.69-0.6 208.09-0.6L208.09-0.6Q207.44-0.6 207.02-0.88 206.59-1.15 206.34-2.05L206.34-2.05 198.89-27.55 199.34-27.6 197.94-14.65Q197.49-10.7 197.54-8.35 197.59-6 197.87-4.73 198.14-3.45 198.39-2.75 198.64-2.05 198.64-1.45L198.64-1.45Q198.64-0.9 198.04-0.53 197.44-0.15 196.54 0.1 195.64 0.35 194.82 0.48 193.99 0.6 193.54 0.6ZM236.19 0.8L236.19 0.8Q233.39 0.8 232.19-1.48 230.99-3.75 230.99-7.85L230.99-7.85Q230.99-11.5 232.06-14.55 233.14-17.6 234.99-19.83 236.84-22.05 239.29-23.28 241.74-24.5 244.49-24.5L244.49-24.5Q246.64-24.5 248.41-23.93 250.19-23.35 251.44-22.75L251.44-22.75 249.99-17.5Q248.64-18.4 246.96-19.15 245.29-19.9 243.86-20.33 242.44-20.75 241.74-20.75L241.74-20.75Q240.34-20.75 239.16-19.38 237.99-18 237.31-15.58 236.64-13.15 236.64-10L236.64-10Q236.64-7.1 237.06-5.6 237.49-4.1 238.44-4.1L238.44-4.1Q239.09-4.1 240.64-5.58 242.19-7.05 244.39-10.5 246.59-13.95 249.04-19.85L249.04-19.85 250.44-15.4Q247.74-9.4 245.29-5.85 242.84-2.3 240.59-0.75 238.34 0.8 236.19 0.8ZM251.64 0.5L248.14 0.5Q247.14 0.5 246.94-0.48 246.74-1.45 246.74-2.55L246.74-2.55Q246.74-3.4 246.96-4.65 247.19-5.9 247.54-7.35 247.89-8.8 248.29-10.2L248.29-10.2 249.39-13.95 247.94-15.25 249.14-22.8Q250.74-23.05 251.96-23.45 253.19-23.85 254.01-24.15 254.84-24.45 255.19-24.45L255.19-24.45Q255.74-24.45 255.74-23.85L255.74-23.85Q255.74-23.6 255.11-21.73 254.49-19.85 253.76-16.95 253.04-14.05 252.69-10.65L252.69-10.65 251.64 0.5ZM263.08 0.8L263.08 0.8Q260.68 0.8 259.71-0.6 258.74-2 259.08-5L259.08-5 261.04-20.25 259.43-20.25Q258.68-20.25 258.68-21.05L258.68-21.05Q258.68-21.55 259.36-22.5 260.04-23.45 261.08-24.6 262.14-25.75 263.26-26.8 264.39-27.85 265.33-28.53 266.29-29.2 266.79-29.2L266.79-29.2Q267.33-29.2 267.54-28.78 267.74-28.35 267.64-27.7L267.64-27.7 267.18-23.75 272.79-23.75Q273.54-23.75 273.66-23.5 273.79-23.25 273.58-22.7L273.58-22.7Q272.99-21 272.46-20.63 271.93-20.25 270.54-20.25L270.54-20.25 266.54-20.25 265.29-9.55Q265.18-8.6 265.11-7.75 265.04-6.9 265.04-6.2L265.04-6.2Q265.04-5.05 265.58-4.58 266.14-4.1 267.39-4.1L267.39-4.1Q268.58-4.1 269.46-4.6 270.33-5.1 270.68-5.1L270.68-5.1Q271.08-5.1 271.08-4.6L271.08-4.6Q271.08-4.1 270.56-3.2 270.04-2.3 269.01-1.38 267.99-0.45 266.49 0.18 264.99 0.8 263.08 0.8ZM282.48 0.8L282.48 0.8Q278.53 0.8 276.43-1.65 274.33-4.1 274.33-8.7L274.33-8.7Q274.33-13.2 276.11-16.8 277.88-20.4 280.96-22.48 284.03-24.55 287.98-24.55L287.98-24.55Q290.08-24.55 291.68-24 293.28-23.45 293.28-21.7L293.28-21.7Q293.28-20.95 293.03-20.2 292.78-19.45 292.38-18.95 291.98-18.45 291.58-18.45L291.58-18.45Q291.38-18.45 291.03-18.57 290.68-18.7 290.43-18.85L290.43-18.85Q289.88-19.2 289.11-19.65 288.33-20.1 287.41-20.45 286.48-20.8 285.48-20.8L285.48-20.8Q283.93-20.8 282.71-19.35 281.48-17.9 280.78-15.5 280.08-13.1 280.08-10.3L280.08-10.3Q280.08-6.6 281.21-5.38 282.33-4.15 284.48-4.15L284.48-4.15Q286.28-4.15 287.53-4.78 288.78-5.4 289.93-6.2L289.93-6.2Q290.38-6.5 290.63-6.58 290.88-6.65 291.08-6.65L291.08-6.65Q291.33-6.65 291.48-6.45 291.63-6.25 291.63-6L291.63-6Q291.63-5.1 290.88-3.93 290.13-2.75 288.83-1.68 287.53-0.6 285.91 0.1 284.28 0.8 282.48 0.8ZM315.28 0.5L311.63 0.5Q311.23 0.5 310.96-0.03 310.68-0.55 310.58-1.2 310.48-1.85 310.48-2.25L310.48-2.25Q310.48-2.95 310.58-4.05 310.68-5.15 310.83-6.38 310.98-7.6 311.13-8.5L311.13-8.5 311.98-13.7Q312.13-14.7 312.28-15.58 312.43-16.45 312.43-17.45L312.43-17.45Q312.43-18.2 312.13-18.6 311.83-19 311.33-19L311.33-19Q310.68-19 309.21-17.78 307.73-16.55 306.06-14.25 304.38-11.95 303.01-8.68 301.63-5.4 301.23-1.25L301.23-1.25 299.98-8.75Q302.03-14.55 304.58-18 307.13-21.45 309.63-22.98 312.13-24.5 314.03-24.5L314.03-24.5Q316.23-24.5 317.23-23.23 318.23-21.95 318.23-19.95L318.23-19.95Q318.23-18.85 318.06-17.65 317.88-16.45 317.68-15.15L317.68-15.15 315.28 0.5ZM296.78 0.7L296.78 0.7Q296.13 0.7 295.81 0.43 295.48 0.15 295.48-0.8 295.48-1.75 295.68-3.75L295.68-3.75 297.83-23.45Q298.13-26.3 298.58-29.13 299.03-31.95 299.18-34.8L299.18-34.8 302.68-34.8Q303.68-34.8 304.16-33.45 304.63-32.1 304.63-30.7L304.63-30.7Q304.63-29.6 304.53-28.73 304.43-27.85 304.23-26.9 304.03-25.95 303.68-24.5L303.68-24.5 300.48-9.85 302.13-11.9Q301.78-8.7 301.58-5.85 301.38-3 301.23-1.25L301.23-1.25Q301.23-0.75 300.36-0.3 299.48 0.15 298.43 0.43 297.38 0.7 296.78 0.7Z" fill="#ff908b" data-fill-palette-color="secondary"></path></g></svg></g></svg></g></svg></g></svg></g><g transform="matrix(1,0,0,1,406.1607214877152,0)"><svg viewBox="0 0 38.18575432646316 62.291283722286" height="62.291283722286" width="38.18575432646316"><g><svg xmlns="http://www.w3.org/2000/svg" xmlns:xlink="http://www.w3.org/1999/xlink" version="1.1" x="0" y="0" viewBox="41.032 22.924 59.667 97.333" enable-background="new 0 0 141.73 141.73" xml:space="preserve" height="62.291283722286" width="38.18575432646316" class="icon-icon-0" data-fill-palette-color="accent" id="icon-0"><g fill="#ff5858" data-fill-palette-color="accent"><path d="M88.699 45.924H53.032c-6.627 0-12 5.373-12 12v50.333c0 6.627 5.373 12 12 12h35.667c6.627 0 12-5.373 12-12V57.924C100.699 51.297 95.326 45.924 88.699 45.924zM86.949 87.586h-11.59v11.588h-8.99V87.586H54.781v-8.99h11.588V67.008h8.99v11.587h11.59V87.586z" fill="#ff5858" data-fill-palette-color="accent"></path><path d="M50.365 43.389h41c2.762 0 5-2.238 5-5V27.924c0-2.761-2.238-5-5-5h-41c-2.762 0-5 2.239-5 5v10.465C45.365 41.151 47.604 43.389 50.365 43.389zM90.437 28.487c0-0.414 0.336-0.75 0.75-0.75s0.75 0.336 0.75 0.75v9.34c0 0.414-0.336 0.75-0.75 0.75s-0.75-0.336-0.75-0.75V28.487zM85.398 28.487c0-0.414 0.336-0.75 0.75-0.75s0.75 0.336 0.75 0.75v9.34c0 0.414-0.336 0.75-0.75 0.75s-0.75-0.336-0.75-0.75V28.487zM80.359 28.487c0-0.414 0.336-0.75 0.75-0.75s0.75 0.336 0.75 0.75v9.34c0 0.414-0.336 0.75-0.75 0.75s-0.75-0.336-0.75-0.75V28.487zM75.32 28.487c0-0.414 0.336-0.75 0.75-0.75s0.75 0.336 0.75 0.75v9.341c0 0.414-0.336 0.75-0.75 0.75s-0.75-0.336-0.75-0.75V28.487zM70.281 28.487c0-0.414 0.336-0.75 0.75-0.75 0.414 0 0.75 0.336 0.75 0.75v9.34c0 0.414-0.336 0.75-0.75 0.75-0.414 0-0.75-0.336-0.75-0.75V28.487zM65.243 28.487c0-0.414 0.336-0.75 0.75-0.75s0.75 0.336 0.75 0.75v9.341c0 0.414-0.336 0.75-0.75 0.75s-0.75-0.336-0.75-0.75V28.487zM60.204 28.487c0-0.414 0.336-0.75 0.75-0.75s0.75 0.336 0.75 0.75v9.34c0 0.414-0.336 0.75-0.75 0.75s-0.75-0.336-0.75-0.75V28.487zM55.165 28.487c0-0.414 0.336-0.75 0.75-0.75s0.75 0.336 0.75 0.75v9.34c0 0.414-0.336 0.75-0.75 0.75s-0.75-0.336-0.75-0.75V28.487zM50.127 28.487c0-0.414 0.336-0.75 0.75-0.75s0.75 0.336 0.75 0.75v9.34c0 0.414-0.336 0.75-0.75 0.75s-0.75-0.336-0.75-0.75V28.487z" fill="#ff5858" data-fill-palette-color="accent"></path></g></svg></g></svg></g></svg></g><defs></defs></svg><rect width="395.52" height="55.446481245733374" fill="none" stroke="none" visibility="hidden"></rect></g></svg></g></svg>